<svg id="visual" viewBox="0 0 900 600" width="900" height="600" xmlns="http://www.w3.org/2000/svg" xmlns:xlink="http://www.w3.org/1999/xlink" version="1.1"><g stroke-width="1" stroke-linejoin="bevel"><path d="M469 309.9L476 341.9L499 349.7Z" fill="#3818dd" stroke="#3818dd"></path><path d="M499 349.7L530 314.9L469 309.9Z" fill="#4f16f4" stroke="#4f16f4"></path><path d="M530 314.9L497 275.1L469 309.9Z" fill="#4a17ee" stroke="#4a17ee"></path><path d="M530 314.9L529 279L497 275.1Z" fill="#1e19c7" stroke="#1e19c7"></path><path d="M529 279L494 262.1L497 275.1Z" fill="#1e19c7" stroke="#1e19c7"></path><path d="M497 275.1L438 268L469 309.9Z" fill="#3e18e3" stroke="#3e18e3"></path><path d="M563 342.7L560 317L530 314.9Z" fill="#4417e9" stroke="#4417e9"></path><path d="M530 314.9L560 317L529 279Z" fill="#2c19d2" stroke="#2c19d2"></path><path d="M469 309.9L444 365.7L476 341.9Z" fill="#3e18e3" stroke="#3e18e3"></path><path d="M476 341.9L444 365.7L499 349.7Z" fill="#5515f9" stroke="#5515f9"></path><path d="M570 425.6L563 342.7L499 349.7Z" fill="#3219d8" stroke="#3219d8"></path><path d="M499 349.7L563 342.7L530 314.9Z" fill="#4f16f4" stroke="#4f16f4"></path><path d="M494 262.1L438 268L497 275.1Z" fill="#2c19d2" stroke="#2c19d2"></path><path d="M469 309.9L421 293.1L444 365.7Z" fill="#3e18e3" stroke="#3e18e3"></path><path d="M438 268L421 293.1L469 309.9Z" fill="#4f16f4" stroke="#4f16f4"></path><path d="M438 268L426 267L421 293.1Z" fill="#4f16f4" stroke="#4f16f4"></path><path d="M437 243.1L426 267L438 268Z" fill="#4417e9" stroke="#4417e9"></path><path d="M494 262.1L437 243.1L438 268Z" fill="#4417e9" stroke="#4417e9"></path><path d="M371 321L401 354.9L421 293.1Z" fill="#5515f9" stroke="#5515f9"></path><path d="M421 293.1L401 354.9L444 365.7Z" fill="#5515f9" stroke="#5515f9"></path><path d="M603 241.3L526 216.3L529 279Z" fill="#4a17ee" stroke="#4a17ee"></path><path d="M529 279L526 216.3L494 262.1Z" fill="#1e19c7" stroke="#1e19c7"></path><path d="M494 262.1L466 206.3L437 243.1Z" fill="#5515f9" stroke="#5515f9"></path><path d="M526 216.3L524 213.4L494 262.1Z" fill="#3e18e3" stroke="#3e18e3"></path><path d="M524 213.4L466 206.3L494 262.1Z" fill="#4417e9" stroke="#4417e9"></path><path d="M610 369.7L614 334L563 342.7Z" fill="#2c19d2" stroke="#2c19d2"></path><path d="M563 342.7L614 334L560 317Z" fill="#3e18e3" stroke="#3e18e3"></path><path d="M560 317L603 241.3L529 279Z" fill="#4417e9" stroke="#4417e9"></path><path d="M526 216.3L570 195.3L524 213.4Z" fill="#1e19c7" stroke="#1e19c7"></path><path d="M429 432.6L522 439.4L444 365.7Z" fill="#2519cd" stroke="#2519cd"></path><path d="M444 365.7L522 439.4L499 349.7Z" fill="#2c19d2" stroke="#2c19d2"></path><path d="M570 425.6L610 369.7L563 342.7Z" fill="#2519cd" stroke="#2519cd"></path><path d="M374 236.3L421 293.1L426 267Z" fill="#3219d8" stroke="#3219d8"></path><path d="M344 272L371 321L421 293.1Z" fill="#4417e9" stroke="#4417e9"></path><path d="M374 236.3L426 267L437 243.1Z" fill="#1e19c7" stroke="#1e19c7"></path><path d="M644 340.9L623 311L614 334Z" fill="#1e19c7" stroke="#1e19c7"></path><path d="M614 334L623 311L560 317Z" fill="#3e18e3" stroke="#3e18e3"></path><path d="M371 321L381 375.7L401 354.9Z" fill="#1e19c7" stroke="#1e19c7"></path><path d="M401 354.9L381 375.7L444 365.7Z" fill="#3e18e3" stroke="#3e18e3"></path><path d="M522 439.4L570 425.6L499 349.7Z" fill="#5515f9" stroke="#5515f9"></path><path d="M502 463.6L529 445.4L522 439.4Z" fill="#4f16f4" stroke="#4f16f4"></path><path d="M522 439.4L529 445.4L570 425.6Z" fill="#2c19d2" stroke="#2c19d2"></path><path d="M381 375.7L429 432.6L444 365.7Z" fill="#2c19d2" stroke="#2c19d2"></path><path d="M623 311L603 241.3L560 317Z" fill="#5515f9" stroke="#5515f9"></path><path d="M623 371.9L626 358.9L610 369.7Z" fill="#4a17ee" stroke="#4a17ee"></path><path d="M610 369.7L626 358.9L614 334Z" fill="#5515f9" stroke="#5515f9"></path><path d="M632 393.7L623 371.9L610 369.7Z" fill="#4417e9" stroke="#4417e9"></path><path d="M648 418.6L607 409.6L654 432.4Z" fill="#3219d8" stroke="#3219d8"></path><path d="M570 425.6L607 409.6L610 369.7Z" fill="#5b13ff" stroke="#5b13ff"></path><path d="M429 432.6L502 463.6L522 439.4Z" fill="#3219d8" stroke="#3219d8"></path><path d="M529 445.4L542 480.3L570 425.6Z" fill="#5515f9" stroke="#5515f9"></path><path d="M603 241.3L570 195.3L526 216.3Z" fill="#5515f9" stroke="#5515f9"></path><path d="M524 213.4L522 128.4L466 206.3Z" fill="#3e18e3" stroke="#3e18e3"></path><path d="M366 225.3L374 236.3L368 193.4Z" fill="#5515f9" stroke="#5515f9"></path><path d="M632 393.7L626 358.9L623 371.9Z" fill="#4417e9" stroke="#4417e9"></path><path d="M632 393.7L644 340.9L626 358.9Z" fill="#3818dd" stroke="#3818dd"></path><path d="M626 358.9L644 340.9L614 334Z" fill="#4417e9" stroke="#4417e9"></path><path d="M623 311L650 290L603 241.3Z" fill="#3e18e3" stroke="#3e18e3"></path><path d="M603 241.3L602 214.1L570 195.3Z" fill="#3e18e3" stroke="#3e18e3"></path><path d="M635 241.1L602 214.1L603 241.3Z" fill="#1e19c7" stroke="#1e19c7"></path><path d="M331 299.1L345 335.9L371 321Z" fill="#5b13ff" stroke="#5b13ff"></path><path d="M371 321L345 335.9L381 375.7Z" fill="#3818dd" stroke="#3818dd"></path><path d="M394 470.4L418 462.6L429 432.6Z" fill="#1e19c7" stroke="#1e19c7"></path><path d="M607 409.6L632 393.7L610 369.7Z" fill="#4a17ee" stroke="#4a17ee"></path><path d="M656 299.1L650 290L623 311Z" fill="#4f16f4" stroke="#4f16f4"></path><path d="M589 177.4L563 176.3L570 195.3Z" fill="#4a17ee" stroke="#4a17ee"></path><path d="M570 195.3L563 176.3L524 213.4Z" fill="#3219d8" stroke="#3219d8"></path><path d="M374 236.3L344 272L421 293.1Z" fill="#5b13ff" stroke="#5b13ff"></path><path d="M650 290L635 241.1L603 241.3Z" fill="#3219d8" stroke="#3219d8"></path><path d="M602 214.1L589 177.4L570 195.3Z" fill="#4417e9" stroke="#4417e9"></path><path d="M368 193.4L374 236.3L437 243.1Z" fill="#4a17ee" stroke="#4a17ee"></path><path d="M374 236.3L366 225.3L344 272Z" fill="#3818dd" stroke="#3818dd"></path><path d="M368 193.4L437 243.1L466 206.3Z" fill="#3219d8" stroke="#3219d8"></path><path d="M644 340.9L656 299.1L623 311Z" fill="#1e19c7" stroke="#1e19c7"></path><path d="M650 290L694 276.1L635 241.1Z" fill="#4417e9" stroke="#4417e9"></path><path d="M694 276.1L656 299.1L708 333.9Z" fill="#4a17ee" stroke="#4a17ee"></path><path d="M394 470.4L429 432.6L350 433.4Z" fill="#3219d8" stroke="#3219d8"></path><path d="M429 432.6L426 470.4L502 463.6Z" fill="#4f16f4" stroke="#4f16f4"></path><path d="M418 462.6L426 470.4L429 432.6Z" fill="#3219d8" stroke="#3219d8"></path><path d="M491 515.1L542 480.3L502 463.6Z" fill="#2c19d2" stroke="#2c19d2"></path><path d="M502 463.6L542 480.3L529 445.4Z" fill="#5515f9" stroke="#5515f9"></path><path d="M607 409.6L640 410.6L632 393.7Z" fill="#4417e9" stroke="#4417e9"></path><path d="M319 294.1L331 299.1L344 272Z" fill="#2c19d2" stroke="#2c19d2"></path><path d="M344 272L331 299.1L371 321Z" fill="#3818dd" stroke="#3818dd"></path><path d="M648 418.6L640 410.6L607 409.6Z" fill="#1e19c7" stroke="#1e19c7"></path><path d="M632 393.7L681 423.7L644 340.9Z" fill="#5b13ff" stroke="#5b13ff"></path><path d="M617 157.6L589 177.4L602 214.1Z" fill="#4a17ee" stroke="#4a17ee"></path><path d="M287 303.9L319 294.1L294 243.1Z" fill="#3818dd" stroke="#3818dd"></path><path d="M331 299.1L287 335.9L345 335.9Z" fill="#4f16f4" stroke="#4f16f4"></path><path d="M345 335.9L335 400.6L381 375.7Z" fill="#4417e9" stroke="#4417e9"></path><path d="M324 393.7L335 400.6L345 335.9Z" fill="#1e19c7" stroke="#1e19c7"></path><path d="M418 462.6L394 470.4L426 470.4Z" fill="#3818dd" stroke="#3818dd"></path><path d="M365 183.4L368 193.4L438 133.4Z" fill="#4417e9" stroke="#4417e9"></path><path d="M294 243.1L319 294.1L344 272Z" fill="#5515f9" stroke="#5515f9"></path><path d="M587 484.3L607 409.6L570 425.6Z" fill="#3818dd" stroke="#3818dd"></path><path d="M640 410.6L681 423.7L632 393.7Z" fill="#3e18e3" stroke="#3e18e3"></path><path d="M350 433.4L429 432.6L381 375.7Z" fill="#2519cd" stroke="#2519cd"></path><path d="M426 470.4L445 500.3L502 463.6Z" fill="#3e18e3" stroke="#3e18e3"></path><path d="M335 400.6L350 433.4L381 375.7Z" fill="#3219d8" stroke="#3219d8"></path><path d="M394 470.4L445 500.3L426 470.4Z" fill="#4417e9" stroke="#4417e9"></path><path d="M306 403.7L324 393.7L279 354.7Z" fill="#2c19d2" stroke="#2c19d2"></path><path d="M335 400.6L306 403.7L350 433.4Z" fill="#5b13ff" stroke="#5b13ff"></path><path d="M597 491.4L587 484.3L602 512.4Z" fill="#2c19d2" stroke="#2c19d2"></path><path d="M542 480.3L587 484.3L570 425.6Z" fill="#4f16f4" stroke="#4f16f4"></path><path d="M438 133.4L368 193.4L466 206.3Z" fill="#3e18e3" stroke="#3e18e3"></path><path d="M292 211.4L294 243.1L366 225.3Z" fill="#5b13ff" stroke="#5b13ff"></path><path d="M587 484.3L654 432.4L607 409.6Z" fill="#5515f9" stroke="#5515f9"></path><path d="M648 418.6L681 423.7L640 410.6Z" fill="#3219d8" stroke="#3219d8"></path><path d="M588 143.4L522 128.4L563 176.3Z" fill="#2c19d2" stroke="#2c19d2"></path><path d="M563 176.3L522 128.4L524 213.4Z" fill="#3818dd" stroke="#3818dd"></path><path d="M445 500.3L491 515.1L502 463.6Z" fill="#1e19c7" stroke="#1e19c7"></path><path d="M468 125.6L438 133.4L466 206.3Z" fill="#4f16f4" stroke="#4f16f4"></path><path d="M522 128.4L468 125.6L466 206.3Z" fill="#5515f9" stroke="#5515f9"></path><path d="M681 423.7L663 426.7L660 484.3Z" fill="#3818dd" stroke="#3818dd"></path><path d="M654 432.4L663 426.7L648 418.6Z" fill="#2519cd" stroke="#2519cd"></path><path d="M602 512.4L587 484.3L542 542.1Z" fill="#4417e9" stroke="#4417e9"></path><path d="M587 484.3L597 491.4L654 432.4Z" fill="#5b13ff" stroke="#5b13ff"></path><path d="M617 157.6L588 143.4L589 177.4Z" fill="#4a17ee" stroke="#4a17ee"></path><path d="M589 177.4L588 143.4L563 176.3Z" fill="#2c19d2" stroke="#2c19d2"></path><path d="M708 333.9L656 299.1L644 340.9Z" fill="#2c19d2" stroke="#2c19d2"></path><path d="M656 299.1L694 276.1L650 290Z" fill="#2c19d2" stroke="#2c19d2"></path><path d="M659 161.6L617 157.6L602 214.1Z" fill="#4417e9" stroke="#4417e9"></path><path d="M659 161.6L602 214.1L635 241.1Z" fill="#5b13ff" stroke="#5b13ff"></path><path d="M473 70.7L456 118.6L468 125.6Z" fill="#3219d8" stroke="#3219d8"></path><path d="M468 125.6L456 118.6L438 133.4Z" fill="#1e19c7" stroke="#1e19c7"></path><path d="M306 179.3L368 193.4L365 183.4Z" fill="#4417e9" stroke="#4417e9"></path><path d="M287 335.9L324 393.7L345 335.9Z" fill="#5b13ff" stroke="#5b13ff"></path><path d="M324 393.7L306 403.7L335 400.6Z" fill="#4417e9" stroke="#4417e9"></path><path d="M350 433.4L363 488.3L394 470.4Z" fill="#4417e9" stroke="#4417e9"></path><path d="M287 303.9L287 335.9L319 294.1Z" fill="#1e19c7" stroke="#1e19c7"></path><path d="M319 294.1L287 335.9L331 299.1Z" fill="#4a17ee" stroke="#4a17ee"></path><path d="M294 243.1L344 272L366 225.3Z" fill="#2519cd" stroke="#2519cd"></path><path d="M660 484.3L663 426.7L654 432.4Z" fill="#3e18e3" stroke="#3e18e3"></path><path d="M663 426.7L681 423.7L648 418.6Z" fill="#4417e9" stroke="#4417e9"></path><path d="M588 143.4L522 110.6L522 128.4Z" fill="#2519cd" stroke="#2519cd"></path><path d="M522 128.4L522 110.6L468 125.6Z" fill="#1e19c7" stroke="#1e19c7"></path><path d="M515 84.7L522 110.6L556 73.9Z" fill="#1e19c7" stroke="#1e19c7"></path><path d="M681 423.7L708 333.9L644 340.9Z" fill="#3818dd" stroke="#3818dd"></path><path d="M356 502.4L363 488.3L311 478.3Z" fill="#4a17ee" stroke="#4a17ee"></path><path d="M394 470.4L356 502.4L445 500.3Z" fill="#4417e9" stroke="#4417e9"></path><path d="M445 500.3L452 531.3L491 515.1Z" fill="#5515f9" stroke="#5515f9"></path><path d="M360 550.3L452 531.3L445 500.3Z" fill="#2519cd" stroke="#2519cd"></path><path d="M542 542.1L587 484.3L542 480.3Z" fill="#2519cd" stroke="#2519cd"></path><path d="M292 211.4L366 225.3L306 179.3Z" fill="#4f16f4" stroke="#4f16f4"></path><path d="M542 542.1L542 480.3L491 515.1Z" fill="#3818dd" stroke="#3818dd"></path><path d="M597 491.4L660 484.3L654 432.4Z" fill="#4a17ee" stroke="#4a17ee"></path><path d="M253 338L279 354.7L287 335.9Z" fill="#5515f9" stroke="#5515f9"></path><path d="M287 335.9L279 354.7L324 393.7Z" fill="#5515f9" stroke="#5515f9"></path><path d="M253 338L287 335.9L246 312.9Z" fill="#5515f9" stroke="#5515f9"></path><path d="M726 292L695 216.3L694 276.1Z" fill="#2519cd" stroke="#2519cd"></path><path d="M694 276.1L695 216.3L635 241.1Z" fill="#2519cd" stroke="#2519cd"></path><path d="M500 600L542 542.1L491 515.1Z" fill="#4f16f4" stroke="#4f16f4"></path><path d="M689 184.4L659 161.6L635 241.1Z" fill="#2519cd" stroke="#2519cd"></path><path d="M617 157.6L635 114.7L588 143.4Z" fill="#5b13ff" stroke="#5b13ff"></path><path d="M310 465.6L363 488.3L350 433.4Z" fill="#5b13ff" stroke="#5b13ff"></path><path d="M363 488.3L356 502.4L394 470.4Z" fill="#1e19c7" stroke="#1e19c7"></path><path d="M298 439.6L350 433.4L306 403.7Z" fill="#2519cd" stroke="#2519cd"></path><path d="M239 400.6L298 439.6L306 403.7Z" fill="#2c19d2" stroke="#2c19d2"></path><path d="M306 179.3L366 225.3L368 193.4Z" fill="#3818dd" stroke="#3818dd"></path><path d="M246 312.9L287 335.9L287 303.9Z" fill="#4f16f4" stroke="#4f16f4"></path><path d="M306 179.3L365 183.4L370 102.6Z" fill="#1e19c7" stroke="#1e19c7"></path><path d="M670 504.3L660 484.3L638 533.1Z" fill="#2519cd" stroke="#2519cd"></path><path d="M602 512.4L660 484.3L597 491.4Z" fill="#4f16f4" stroke="#4f16f4"></path><path d="M746 299.1L726 292L708 333.9Z" fill="#4a17ee" stroke="#4a17ee"></path><path d="M708 333.9L726 292L694 276.1Z" fill="#3e18e3" stroke="#3e18e3"></path><path d="M770 186.3L697 205.3L695 216.3Z" fill="#5515f9" stroke="#5515f9"></path><path d="M695 216.3L689 184.4L635 241.1Z" fill="#5515f9" stroke="#5515f9"></path><path d="M298 439.6L310 465.6L350 433.4Z" fill="#3818dd" stroke="#3818dd"></path><path d="M697 205.3L689 184.4L695 216.3Z" fill="#2519cd" stroke="#2519cd"></path><path d="M556 73.9L522 110.6L588 143.4Z" fill="#4417e9" stroke="#4417e9"></path><path d="M522 110.6L515 84.7L468 125.6Z" fill="#3818dd" stroke="#3818dd"></path><path d="M389 103.7L365 183.4L438 133.4Z" fill="#2c19d2" stroke="#2c19d2"></path><path d="M389 103.7L438 133.4L404 89.6Z" fill="#3219d8" stroke="#3219d8"></path><path d="M563 600L567 551.1L542 542.1Z" fill="#3219d8" stroke="#3219d8"></path><path d="M542 542.1L567 551.1L602 512.4Z" fill="#3e18e3" stroke="#3e18e3"></path><path d="M404 89.6L438 133.4L456 118.6Z" fill="#3818dd" stroke="#3818dd"></path><path d="M310 465.6L311 478.3L363 488.3Z" fill="#2c19d2" stroke="#2c19d2"></path><path d="M300 496.4L311 478.3L310 465.6Z" fill="#2c19d2" stroke="#2c19d2"></path><path d="M246 312.9L287 303.9L240 233.1Z" fill="#2519cd" stroke="#2519cd"></path><path d="M279 354.7L239 400.6L306 403.7Z" fill="#4417e9" stroke="#4417e9"></path><path d="M251 481.3L300 496.4L310 465.6Z" fill="#4417e9" stroke="#4417e9"></path><path d="M360 550.3L440 560.1L452 531.3Z" fill="#5b13ff" stroke="#5b13ff"></path><path d="M482 600L500 600L491 515.1Z" fill="#4417e9" stroke="#4417e9"></path><path d="M360 550.3L445 500.3L356 502.4Z" fill="#4f16f4" stroke="#4f16f4"></path><path d="M678 143.4L635 114.7L659 161.6Z" fill="#2c19d2" stroke="#2c19d2"></path><path d="M659 161.6L635 114.7L617 157.6Z" fill="#5b13ff" stroke="#5b13ff"></path><path d="M411 70.9L404 89.6L456 118.6Z" fill="#4a17ee" stroke="#4a17ee"></path><path d="M389 103.7L370 102.6L365 183.4Z" fill="#1e19c7" stroke="#1e19c7"></path><path d="M240 233.1L294 243.1L292 211.4Z" fill="#3818dd" stroke="#3818dd"></path><path d="M240 233.1L287 303.9L294 243.1Z" fill="#3818dd" stroke="#3818dd"></path><path d="M759 327.9L746 299.1L708 333.9Z" fill="#1e19c7" stroke="#1e19c7"></path><path d="M726 292L770 186.3L695 216.3Z" fill="#2519cd" stroke="#2519cd"></path><path d="M689 141.6L678 143.4L689 184.4Z" fill="#2519cd" stroke="#2519cd"></path><path d="M790 383.7L708 333.9L681 423.7Z" fill="#4417e9" stroke="#4417e9"></path><path d="M509 67.9L473 70.7L515 84.7Z" fill="#2519cd" stroke="#2519cd"></path><path d="M515 84.7L473 70.7L468 125.6Z" fill="#2c19d2" stroke="#2c19d2"></path><path d="M386 83.9L370 102.6L389 103.7Z" fill="#5515f9" stroke="#5515f9"></path><path d="M715 466.6L711 452.4L660 484.3Z" fill="#3818dd" stroke="#3818dd"></path><path d="M660 484.3L711 452.4L681 423.7Z" fill="#3219d8" stroke="#3219d8"></path><path d="M638 533.1L660 484.3L602 512.4Z" fill="#5515f9" stroke="#5515f9"></path><path d="M556 73.9L509 67.9L515 84.7Z" fill="#3219d8" stroke="#3219d8"></path><path d="M565 70.7L556 73.9L588 143.4Z" fill="#5b13ff" stroke="#5b13ff"></path><path d="M689 184.4L678 143.4L659 161.6Z" fill="#4f16f4" stroke="#4f16f4"></path><path d="M689 141.6L689 184.4L768 143.4Z" fill="#2c19d2" stroke="#2c19d2"></path><path d="M567 551.1L638 533.1L602 512.4Z" fill="#1e19c7" stroke="#1e19c7"></path><path d="M300 496.4L342 528.1L356 502.4Z" fill="#3818dd" stroke="#3818dd"></path><path d="M627 95.6L565 70.7L588 143.4Z" fill="#2519cd" stroke="#2519cd"></path><path d="M556 73.9L559 49.9L509 67.9Z" fill="#4a17ee" stroke="#4a17ee"></path><path d="M689 108.7L627 95.6L635 114.7Z" fill="#3219d8" stroke="#3219d8"></path><path d="M635 114.7L627 95.6L588 143.4Z" fill="#5b13ff" stroke="#5b13ff"></path><path d="M411 70.9L386 83.9L404 89.6Z" fill="#2519cd" stroke="#2519cd"></path><path d="M404 89.6L386 83.9L389 103.7Z" fill="#3219d8" stroke="#3219d8"></path><path d="M790 383.7L759 327.9L708 333.9Z" fill="#5515f9" stroke="#5515f9"></path><path d="M770 186.3L689 184.4L697 205.3Z" fill="#5515f9" stroke="#5515f9"></path><path d="M670 504.3L715 466.6L660 484.3Z" fill="#3e18e3" stroke="#3e18e3"></path><path d="M777 430.4L790 383.7L681 423.7Z" fill="#5b13ff" stroke="#5b13ff"></path><path d="M777 430.4L715 466.6L756 489.3Z" fill="#2c19d2" stroke="#2c19d2"></path><path d="M770 186.3L726 292L746 299.1Z" fill="#4f16f4" stroke="#4f16f4"></path><path d="M678 143.4L689 108.7L635 114.7Z" fill="#2519cd" stroke="#2519cd"></path><path d="M251 481.3L310 465.6L298 439.6Z" fill="#5515f9" stroke="#5515f9"></path><path d="M311 478.3L300 496.4L356 502.4Z" fill="#4417e9" stroke="#4417e9"></path><path d="M473 70.7L411 70.9L456 118.6Z" fill="#4f16f4" stroke="#4f16f4"></path><path d="M428 46.7L411 70.9L473 70.7Z" fill="#5b13ff" stroke="#5b13ff"></path><path d="M332 576.1L360 550.3L342 528.1Z" fill="#1e19c7" stroke="#1e19c7"></path><path d="M342 528.1L360 550.3L356 502.4Z" fill="#2c19d2" stroke="#2c19d2"></path><path d="M207 381.9L239 400.6L253 338Z" fill="#2519cd" stroke="#2519cd"></path><path d="M253 338L239 400.6L279 354.7Z" fill="#1e19c7" stroke="#1e19c7"></path><path d="M261 177.3L292 211.4L306 179.3Z" fill="#2c19d2" stroke="#2c19d2"></path><path d="M261 177.3L240 233.1L292 211.4Z" fill="#1e19c7" stroke="#1e19c7"></path><path d="M246 312.9L208 337L253 338Z" fill="#3e18e3" stroke="#3e18e3"></path><path d="M276 157.6L306 179.3L277 136.4Z" fill="#5b13ff" stroke="#5b13ff"></path><path d="M806 295L769 305L824 310.9Z" fill="#4f16f4" stroke="#4f16f4"></path><path d="M759 327.9L769 305L746 299.1Z" fill="#1e19c7" stroke="#1e19c7"></path><path d="M277 136.4L306 179.3L296 95.7Z" fill="#5515f9" stroke="#5515f9"></path><path d="M276 157.6L261 177.3L306 179.3Z" fill="#2519cd" stroke="#2519cd"></path><path d="M332 576.1L372 567.1L360 550.3Z" fill="#4417e9" stroke="#4417e9"></path><path d="M360 550.3L372 567.1L440 560.1Z" fill="#1e19c7" stroke="#1e19c7"></path><path d="M482 600L491 515.1L452 531.3Z" fill="#4417e9" stroke="#4417e9"></path><path d="M617 44.7L559 49.9L565 70.7Z" fill="#5b13ff" stroke="#5b13ff"></path><path d="M565 70.7L559 49.9L556 73.9Z" fill="#3219d8" stroke="#3219d8"></path><path d="M436 17.9L428 46.7L473 70.7Z" fill="#5b13ff" stroke="#5b13ff"></path><path d="M482 600L452 531.3L440 560.1Z" fill="#1e19c7" stroke="#1e19c7"></path><path d="M567 551.1L645 600L638 533.1Z" fill="#5b13ff" stroke="#5b13ff"></path><path d="M375 600L482 600L440 560.1Z" fill="#3e18e3" stroke="#3e18e3"></path><path d="M386 0L352 77.9L386 83.9Z" fill="#3818dd" stroke="#3818dd"></path><path d="M386 83.9L352 77.9L370 102.6Z" fill="#4417e9" stroke="#4417e9"></path><path d="M436 17.9L473 70.7L455 0Z" fill="#5515f9" stroke="#5515f9"></path><path d="M386 0L386 83.9L411 70.9Z" fill="#4a17ee" stroke="#4a17ee"></path><path d="M296 95.7L306 179.3L370 102.6Z" fill="#4417e9" stroke="#4417e9"></path><path d="M243 142.6L223 180.3L261 177.3Z" fill="#3e18e3" stroke="#3e18e3"></path><path d="M689 141.6L689 108.7L678 143.4Z" fill="#1e19c7" stroke="#1e19c7"></path><path d="M627 95.6L617 44.7L565 70.7Z" fill="#4f16f4" stroke="#4f16f4"></path><path d="M768 143.4L689 108.7L689 141.6Z" fill="#1e19c7" stroke="#1e19c7"></path><path d="M500 600L563 600L542 542.1Z" fill="#5b13ff" stroke="#5b13ff"></path><path d="M756 489.3L715 466.6L670 504.3Z" fill="#1e19c7" stroke="#1e19c7"></path><path d="M198 305L208 337L246 312.9Z" fill="#3e18e3" stroke="#3e18e3"></path><path d="M563 600L569 600L567 551.1Z" fill="#4417e9" stroke="#4417e9"></path><path d="M230 454.4L298 439.6L239 400.6Z" fill="#1e19c7" stroke="#1e19c7"></path><path d="M230 454.4L251 481.3L298 439.6Z" fill="#3e18e3" stroke="#3e18e3"></path><path d="M300 496.4L332 576.1L342 528.1Z" fill="#3818dd" stroke="#3818dd"></path><path d="M208 337L207 381.9L253 338Z" fill="#4a17ee" stroke="#4a17ee"></path><path d="M214 418.6L230 454.4L239 400.6Z" fill="#5515f9" stroke="#5515f9"></path><path d="M163 280L198 305L160 263.1Z" fill="#3818dd" stroke="#3818dd"></path><path d="M240 233.1L198 305L246 312.9Z" fill="#4417e9" stroke="#4417e9"></path><path d="M168 419.7L191 417.7L207 381.9Z" fill="#3219d8" stroke="#3219d8"></path><path d="M223 180.3L240 233.1L261 177.3Z" fill="#4f16f4" stroke="#4f16f4"></path><path d="M207 381.9L214 418.6L239 400.6Z" fill="#4417e9" stroke="#4417e9"></path><path d="M777 430.4L681 423.7L711 452.4Z" fill="#5b13ff" stroke="#5b13ff"></path><path d="M806 295L795 287.1L769 305Z" fill="#1e19c7" stroke="#1e19c7"></path><path d="M769 305L795 287.1L746 299.1Z" fill="#2519cd" stroke="#2519cd"></path><path d="M352 77.9L296 95.7L370 102.6Z" fill="#5b13ff" stroke="#5b13ff"></path><path d="M243 142.6L261 177.3L276 157.6Z" fill="#1e19c7" stroke="#1e19c7"></path><path d="M328 64.7L296 95.7L352 77.9Z" fill="#3219d8" stroke="#3219d8"></path><path d="M641 15.9L617 44.7L627 95.6Z" fill="#3219d8" stroke="#3219d8"></path><path d="M455 0L473 70.7L509 67.9Z" fill="#4f16f4" stroke="#4f16f4"></path><path d="M756 489.3L758 534.3L763 524.1Z" fill="#3219d8" stroke="#3219d8"></path><path d="M715 466.6L777 430.4L711 452.4Z" fill="#2c19d2" stroke="#2c19d2"></path><path d="M207 381.9L210 419.7L214 418.6Z" fill="#3219d8" stroke="#3219d8"></path><path d="M214 418.6L210 419.7L230 454.4Z" fill="#3219d8" stroke="#3219d8"></path><path d="M191 417.7L210 419.7L207 381.9Z" fill="#3e18e3" stroke="#3e18e3"></path><path d="M274 600L332 576.1L300 496.4Z" fill="#4f16f4" stroke="#4f16f4"></path><path d="M372 567.1L375 600L440 560.1Z" fill="#4417e9" stroke="#4417e9"></path><path d="M346 600L375 600L372 567.1Z" fill="#4417e9" stroke="#4417e9"></path><path d="M795 287.1L770 186.3L746 299.1Z" fill="#1e19c7" stroke="#1e19c7"></path><path d="M348 0L328 64.7L352 77.9Z" fill="#3818dd" stroke="#3818dd"></path><path d="M243 142.6L276 157.6L277 136.4Z" fill="#2c19d2" stroke="#2c19d2"></path><path d="M455 0L509 67.9L547 0Z" fill="#1e19c7" stroke="#1e19c7"></path><path d="M428 46.7L386 0L411 70.9Z" fill="#2c19d2" stroke="#2c19d2"></path><path d="M802 396.6L801 369.7L790 383.7Z" fill="#4a17ee" stroke="#4a17ee"></path><path d="M790 383.7L801 369.7L759 327.9Z" fill="#3219d8" stroke="#3219d8"></path><path d="M247 99.6L243 142.6L277 136.4Z" fill="#3e18e3" stroke="#3e18e3"></path><path d="M247 99.6L277 136.4L296 95.7Z" fill="#1e19c7" stroke="#1e19c7"></path><path d="M683 600L670 504.3L638 533.1Z" fill="#4417e9" stroke="#4417e9"></path><path d="M777 430.4L802 396.6L790 383.7Z" fill="#1e19c7" stroke="#1e19c7"></path><path d="M824 310.9L769 305L759 327.9Z" fill="#3219d8" stroke="#3219d8"></path><path d="M795 287.1L813 215.3L770 186.3Z" fill="#4417e9" stroke="#4417e9"></path><path d="M799 428.6L802 396.6L777 430.4Z" fill="#4f16f4" stroke="#4f16f4"></path><path d="M824 310.9L818 264L806 295Z" fill="#4417e9" stroke="#4417e9"></path><path d="M569 600L645 600L567 551.1Z" fill="#4417e9" stroke="#4417e9"></path><path d="M274 600L346 600L332 576.1Z" fill="#5515f9" stroke="#5515f9"></path><path d="M332 576.1L346 600L372 567.1Z" fill="#3219d8" stroke="#3219d8"></path><path d="M230 454.4L200 476.3L251 481.3Z" fill="#4a17ee" stroke="#4a17ee"></path><path d="M251 481.3L228 552.1L300 496.4Z" fill="#4f16f4" stroke="#4f16f4"></path><path d="M210 419.7L200 476.3L230 454.4Z" fill="#2519cd" stroke="#2519cd"></path><path d="M168 419.7L207 381.9L126 392.6Z" fill="#2c19d2" stroke="#2c19d2"></path><path d="M813 215.3L777 165.4L770 186.3Z" fill="#2c19d2" stroke="#2c19d2"></path><path d="M770 186.3L768 143.4L689 184.4Z" fill="#4417e9" stroke="#4417e9"></path><path d="M689 108.7L641 15.9L627 95.6Z" fill="#4f16f4" stroke="#4f16f4"></path><path d="M820 477.4L799 428.6L777 430.4Z" fill="#2c19d2" stroke="#2c19d2"></path><path d="M295 48.7L291 72.9L328 64.7Z" fill="#5515f9" stroke="#5515f9"></path><path d="M328 64.7L291 72.9L296 95.7Z" fill="#5515f9" stroke="#5515f9"></path><path d="M547 0L509 67.9L559 49.9Z" fill="#3e18e3" stroke="#3e18e3"></path><path d="M436 17.9L407 0L428 46.7Z" fill="#1e19c7" stroke="#1e19c7"></path><path d="M247 99.6L223 146.4L243 142.6Z" fill="#4417e9" stroke="#4417e9"></path><path d="M243 142.6L223 146.4L223 180.3Z" fill="#4a17ee" stroke="#4a17ee"></path><path d="M160 263.1L198 305L240 233.1Z" fill="#1e19c7" stroke="#1e19c7"></path><path d="M645 600L661 600L638 533.1Z" fill="#3219d8" stroke="#3219d8"></path><path d="M777 165.4L768 143.4L770 186.3Z" fill="#4417e9" stroke="#4417e9"></path><path d="M557 0L547 0L559 49.9Z" fill="#4a17ee" stroke="#4a17ee"></path><path d="M641 15.9L557 0L617 44.7Z" fill="#2c19d2" stroke="#2c19d2"></path><path d="M617 44.7L557 0L559 49.9Z" fill="#5515f9" stroke="#5515f9"></path><path d="M824 310.9L759 327.9L801 369.7Z" fill="#4a17ee" stroke="#4a17ee"></path><path d="M806 295L818 264L795 287.1Z" fill="#4f16f4" stroke="#4f16f4"></path><path d="M777 165.4L774 128.6L768 143.4Z" fill="#3219d8" stroke="#3219d8"></path><path d="M824 310.9L801 369.7L847 378.9Z" fill="#4f16f4" stroke="#4f16f4"></path><path d="M839 394.7L801 369.7L802 396.6Z" fill="#4f16f4" stroke="#4f16f4"></path><path d="M661 600L671 599.1L638 533.1Z" fill="#4f16f4" stroke="#4f16f4"></path><path d="M455 0L407 0L436 17.9Z" fill="#3e18e3" stroke="#3e18e3"></path><path d="M217 80.9L247 99.6L227 53.7Z" fill="#5b13ff" stroke="#5b13ff"></path><path d="M291 72.9L247 99.6L296 95.7Z" fill="#1e19c7" stroke="#1e19c7"></path><path d="M817 224.3L813 215.3L795 287.1Z" fill="#1e19c7" stroke="#1e19c7"></path><path d="M817 224.3L795 287.1L818 264Z" fill="#4a17ee" stroke="#4a17ee"></path><path d="M191 417.7L200 476.3L210 419.7Z" fill="#5515f9" stroke="#5515f9"></path><path d="M824 242.1L817 224.3L818 264Z" fill="#3219d8" stroke="#3219d8"></path><path d="M160 263.1L240 233.1L151 203.3Z" fill="#4f16f4" stroke="#4f16f4"></path><path d="M198 305L122 342.9L208 337Z" fill="#3818dd" stroke="#3818dd"></path><path d="M191 417.7L177 472.4L200 476.3Z" fill="#4417e9" stroke="#4417e9"></path><path d="M756 489.3L820 477.4L777 430.4Z" fill="#4a17ee" stroke="#4a17ee"></path><path d="M758 534.3L756 489.3L670 504.3Z" fill="#3e18e3" stroke="#3e18e3"></path><path d="M661 600L683 600L671 599.1Z" fill="#4f16f4" stroke="#4f16f4"></path><path d="M671 599.1L683 600L638 533.1Z" fill="#4a17ee" stroke="#4a17ee"></path><path d="M900 274L824 242.1L818 264Z" fill="#1e19c7" stroke="#1e19c7"></path><path d="M656 0L641 15.9L676 9.9Z" fill="#5515f9" stroke="#5515f9"></path><path d="M836 121.6L774 128.6L777 165.4Z" fill="#2519cd" stroke="#2519cd"></path><path d="M768 143.4L748 85.6L689 108.7Z" fill="#3818dd" stroke="#3818dd"></path><path d="M730 589.1L758 534.3L670 504.3Z" fill="#5515f9" stroke="#5515f9"></path><path d="M326 0L295 48.7L328 64.7Z" fill="#3818dd" stroke="#3818dd"></path><path d="M407 0L386 0L428 46.7Z" fill="#4f16f4" stroke="#4f16f4"></path><path d="M151 203.3L240 233.1L223 180.3Z" fill="#4417e9" stroke="#4417e9"></path><path d="M190 145.4L223 180.3L223 146.4Z" fill="#3818dd" stroke="#3818dd"></path><path d="M122 342.9L198 305L163 280Z" fill="#5b13ff" stroke="#5b13ff"></path><path d="M122 342.9L207 381.9L208 337Z" fill="#3818dd" stroke="#3818dd"></path><path d="M774 128.6L748 85.6L768 143.4Z" fill="#3818dd" stroke="#3818dd"></path><path d="M790 521.3L756 489.3L763 524.1Z" fill="#2c19d2" stroke="#2c19d2"></path><path d="M843 433.6L839 394.7L799 428.6Z" fill="#4f16f4" stroke="#4f16f4"></path><path d="M799 428.6L839 394.7L802 396.6Z" fill="#3818dd" stroke="#3818dd"></path><path d="M900 242.1L864 185.4L824 242.1Z" fill="#3e18e3" stroke="#3e18e3"></path><path d="M177 472.4L193 500.3L200 476.3Z" fill="#3e18e3" stroke="#3e18e3"></path><path d="M200 476.3L193 500.3L251 481.3Z" fill="#2c19d2" stroke="#2c19d2"></path><path d="M656 0L642 0L641 15.9Z" fill="#3219d8" stroke="#3219d8"></path><path d="M641 15.9L642 0L557 0Z" fill="#2519cd" stroke="#2519cd"></path><path d="M199 86.7L223 146.4L247 99.6Z" fill="#3219d8" stroke="#3219d8"></path><path d="M199 86.7L190 145.4L223 146.4Z" fill="#3818dd" stroke="#3818dd"></path><path d="M386 0L348 0L352 77.9Z" fill="#2c19d2" stroke="#2c19d2"></path><path d="M168 419.7L177 472.4L191 417.7Z" fill="#3818dd" stroke="#3818dd"></path><path d="M193 500.3L228 552.1L251 481.3Z" fill="#5b13ff" stroke="#5b13ff"></path><path d="M839 394.7L847 378.9L801 369.7Z" fill="#3818dd" stroke="#3818dd"></path><path d="M786 548.1L763 524.1L758 534.3Z" fill="#3e18e3" stroke="#3e18e3"></path><path d="M786 548.1L790 521.3L763 524.1Z" fill="#5b13ff" stroke="#5b13ff"></path><path d="M839 394.7L900 389.7L847 378.9Z" fill="#2519cd" stroke="#2519cd"></path><path d="M683 600L730 589.1L670 504.3Z" fill="#3219d8" stroke="#3219d8"></path><path d="M228 552.1L274 600L300 496.4Z" fill="#3818dd" stroke="#3818dd"></path><path d="M676 9.9L641 15.9L689 108.7Z" fill="#5515f9" stroke="#5515f9"></path><path d="M711 28.9L676 9.9L689 108.7Z" fill="#3e18e3" stroke="#3e18e3"></path><path d="M790 521.3L820 477.4L756 489.3Z" fill="#1e19c7" stroke="#1e19c7"></path><path d="M748 85.6L711 28.9L689 108.7Z" fill="#3e18e3" stroke="#3e18e3"></path><path d="M348 0L326 0L328 64.7Z" fill="#2519cd" stroke="#2519cd"></path><path d="M227 53.7L247 99.6L291 72.9Z" fill="#4417e9" stroke="#4417e9"></path><path d="M190 145.4L151 203.3L223 180.3Z" fill="#2c19d2" stroke="#2c19d2"></path><path d="M109 293L122 342.9L163 280Z" fill="#3818dd" stroke="#3818dd"></path><path d="M820 477.4L843 433.6L799 428.6Z" fill="#4f16f4" stroke="#4f16f4"></path><path d="M227 53.7L291 72.9L295 48.7Z" fill="#3e18e3" stroke="#3e18e3"></path><path d="M190 145.4L125 161.4L151 203.3Z" fill="#3219d8" stroke="#3219d8"></path><path d="M900 501.3L890 486.3L890 550.1Z" fill="#4f16f4" stroke="#4f16f4"></path><path d="M900 423.6L839 394.7L843 433.6Z" fill="#5515f9" stroke="#5515f9"></path><path d="M755 600L786 548.1L758 534.3Z" fill="#5515f9" stroke="#5515f9"></path><path d="M177 472.4L169 499.4L193 500.3Z" fill="#1e19c7" stroke="#1e19c7"></path><path d="M193 500.3L146 525.3L228 552.1Z" fill="#2c19d2" stroke="#2c19d2"></path><path d="M228 552.1L219 598.1L274 600Z" fill="#2519cd" stroke="#2519cd"></path><path d="M121 444.4L169 499.4L177 472.4Z" fill="#2519cd" stroke="#2519cd"></path><path d="M121 444.4L177 472.4L168 419.7Z" fill="#1e19c7" stroke="#1e19c7"></path><path d="M711 28.9L688 0L676 9.9Z" fill="#4f16f4" stroke="#4f16f4"></path><path d="M676 9.9L688 0L656 0Z" fill="#4417e9" stroke="#4417e9"></path><path d="M109 293L163 280L160 263.1Z" fill="#5515f9" stroke="#5515f9"></path><path d="M122 342.9L126 392.6L207 381.9Z" fill="#3e18e3" stroke="#3e18e3"></path><path d="M217 80.9L199 86.7L247 99.6Z" fill="#3219d8" stroke="#3219d8"></path><path d="M227 53.7L199 86.7L217 80.9Z" fill="#5515f9" stroke="#5515f9"></path><path d="M266 0L227 53.7L295 48.7Z" fill="#5515f9" stroke="#5515f9"></path><path d="M683 600L755 600L730 589.1Z" fill="#3818dd" stroke="#3818dd"></path><path d="M730 589.1L755 600L758 534.3Z" fill="#4a17ee" stroke="#4a17ee"></path><path d="M73 394.6L126 418.6L126 392.6Z" fill="#3e18e3" stroke="#3e18e3"></path><path d="M126 392.6L126 418.6L168 419.7Z" fill="#2519cd" stroke="#2519cd"></path><path d="M94 290.1L114 352.9L122 342.9Z" fill="#5515f9" stroke="#5515f9"></path><path d="M122 342.9L114 352.9L126 392.6Z" fill="#4f16f4" stroke="#4f16f4"></path><path d="M125 161.4L119 245.3L151 203.3Z" fill="#4a17ee" stroke="#4a17ee"></path><path d="M151 203.3L119 245.3L160 263.1Z" fill="#4f16f4" stroke="#4f16f4"></path><path d="M119 245.3L109 293L160 263.1Z" fill="#5515f9" stroke="#5515f9"></path><path d="M138 71.7L168 108.6L199 86.7Z" fill="#4417e9" stroke="#4417e9"></path><path d="M199 86.7L168 108.6L190 145.4Z" fill="#2c19d2" stroke="#2c19d2"></path><path d="M813 215.3L864 185.4L777 165.4Z" fill="#2c19d2" stroke="#2c19d2"></path><path d="M774 128.6L817 74.9L748 85.6Z" fill="#3219d8" stroke="#3219d8"></path><path d="M748 85.6L784 32.9L711 28.9Z" fill="#3818dd" stroke="#3818dd"></path><path d="M711 28.9L793 0L688 0Z" fill="#3e18e3" stroke="#3e18e3"></path><path d="M817 224.3L864 185.4L813 215.3Z" fill="#4a17ee" stroke="#4a17ee"></path><path d="M824 242.1L864 185.4L817 224.3Z" fill="#4f16f4" stroke="#4f16f4"></path><path d="M900 274L818 264L824 310.9Z" fill="#2c19d2" stroke="#2c19d2"></path><path d="M900 346.9L824 310.9L847 378.9Z" fill="#5b13ff" stroke="#5b13ff"></path><path d="M219 598.1L228 552.1L199 598.1Z" fill="#2519cd" stroke="#2519cd"></path><path d="M205 600L219 598.1L199 598.1Z" fill="#4a17ee" stroke="#4a17ee"></path><path d="M864 185.4L836 121.6L777 165.4Z" fill="#4a17ee" stroke="#4a17ee"></path><path d="M326 0L266 0L295 48.7Z" fill="#5515f9" stroke="#5515f9"></path><path d="M227 53.7L208 10.9L199 86.7Z" fill="#4f16f4" stroke="#4f16f4"></path><path d="M73 394.6L121 444.4L126 418.6Z" fill="#3e18e3" stroke="#3e18e3"></path><path d="M126 418.6L121 444.4L168 419.7Z" fill="#5515f9" stroke="#5515f9"></path><path d="M96 365.7L126 392.6L114 352.9Z" fill="#3e18e3" stroke="#3e18e3"></path><path d="M864 185.4L838 119.7L836 121.6Z" fill="#5515f9" stroke="#5515f9"></path><path d="M836 121.6L817 74.9L774 128.6Z" fill="#1e19c7" stroke="#1e19c7"></path><path d="M85 367.7L96 365.7L114 352.9Z" fill="#4a17ee" stroke="#4a17ee"></path><path d="M119 245.3L94 290.1L109 293Z" fill="#3818dd" stroke="#3818dd"></path><path d="M109 293L94 290.1L122 342.9Z" fill="#1e19c7" stroke="#1e19c7"></path><path d="M81 247.3L94 290.1L119 245.3Z" fill="#3219d8" stroke="#3219d8"></path><path d="M146 525.3L193 500.3L169 499.4Z" fill="#2c19d2" stroke="#2c19d2"></path><path d="M219 598.1L205 600L274 600Z" fill="#3219d8" stroke="#3219d8"></path><path d="M132 143.4L125 161.4L190 145.4Z" fill="#5515f9" stroke="#5515f9"></path><path d="M755 600L788 600L786 548.1Z" fill="#3818dd" stroke="#3818dd"></path><path d="M890 486.3L887 451.4L820 477.4Z" fill="#2c19d2" stroke="#2c19d2"></path><path d="M838 119.7L817 74.9L836 121.6Z" fill="#2c19d2" stroke="#2c19d2"></path><path d="M900 389.7L839 394.7L900 423.6Z" fill="#5515f9" stroke="#5515f9"></path><path d="M900 389.7L900 346.9L847 378.9Z" fill="#5b13ff" stroke="#5b13ff"></path><path d="M118 117.6L132 143.4L168 108.6Z" fill="#2c19d2" stroke="#2c19d2"></path><path d="M168 108.6L132 143.4L190 145.4Z" fill="#3219d8" stroke="#3219d8"></path><path d="M107 552.1L146 525.3L83 525.3Z" fill="#1e19c7" stroke="#1e19c7"></path><path d="M121 444.4L146 525.3L169 499.4Z" fill="#4a17ee" stroke="#4a17ee"></path><path d="M193 600L199 598.1L228 552.1Z" fill="#4417e9" stroke="#4417e9"></path><path d="M900 346.9L900 274L824 310.9Z" fill="#3219d8" stroke="#3219d8"></path><path d="M864 185.4L900 123.7L838 119.7Z" fill="#2c19d2" stroke="#2c19d2"></path><path d="M794 42.7L784 32.9L748 85.6Z" fill="#4417e9" stroke="#4417e9"></path><path d="M817 74.9L794 42.7L748 85.6Z" fill="#5515f9" stroke="#5515f9"></path><path d="M887 451.4L843 433.6L820 477.4Z" fill="#5b13ff" stroke="#5b13ff"></path><path d="M900 274L900 242.1L824 242.1Z" fill="#5b13ff" stroke="#5b13ff"></path><path d="M859 70.9L828 55.7L817 74.9Z" fill="#5b13ff" stroke="#5b13ff"></path><path d="M146 525.3L193 600L228 552.1Z" fill="#2519cd" stroke="#2519cd"></path><path d="M199 598.1L193 600L205 600Z" fill="#3818dd" stroke="#3818dd"></path><path d="M820 477.4L890 550.1L890 486.3Z" fill="#2519cd" stroke="#2519cd"></path><path d="M94 290.1L85 367.7L114 352.9Z" fill="#3818dd" stroke="#3818dd"></path><path d="M96 365.7L73 394.6L126 392.6Z" fill="#3818dd" stroke="#3818dd"></path><path d="M887 451.4L900 423.6L843 433.6Z" fill="#2519cd" stroke="#2519cd"></path><path d="M900 242.1L900 202.4L864 185.4Z" fill="#4417e9" stroke="#4417e9"></path><path d="M125 161.4L81 247.3L119 245.3Z" fill="#1e19c7" stroke="#1e19c7"></path><path d="M94 290.1L45 342.9L85 367.7Z" fill="#5515f9" stroke="#5515f9"></path><path d="M63 251.3L81 247.3L28 232.1Z" fill="#3219d8" stroke="#3219d8"></path><path d="M266 0L208 10.9L227 53.7Z" fill="#5515f9" stroke="#5515f9"></path><path d="M859 70.9L817 74.9L838 119.7Z" fill="#4a17ee" stroke="#4a17ee"></path><path d="M817 74.9L828 55.7L794 42.7Z" fill="#3e18e3" stroke="#3e18e3"></path><path d="M814 0L793 0L784 32.9Z" fill="#1e19c7" stroke="#1e19c7"></path><path d="M900 202.4L900 188.3L864 185.4Z" fill="#2519cd" stroke="#2519cd"></path><path d="M900 493.4L890 486.3L900 501.3Z" fill="#4f16f4" stroke="#4f16f4"></path><path d="M887 451.4L900 493.4L900 423.6Z" fill="#1e19c7" stroke="#1e19c7"></path><path d="M138 71.7L118 117.6L168 108.6Z" fill="#5b13ff" stroke="#5b13ff"></path><path d="M132 143.4L118 117.6L125 161.4Z" fill="#4f16f4" stroke="#4f16f4"></path><path d="M45 342.9L73 394.6L85 367.7Z" fill="#4f16f4" stroke="#4f16f4"></path><path d="M85 367.7L73 394.6L96 365.7Z" fill="#4a17ee" stroke="#4a17ee"></path><path d="M131 48.9L138 71.7L199 86.7Z" fill="#3818dd" stroke="#3818dd"></path><path d="M814 0L784 32.9L794 42.7Z" fill="#1e19c7" stroke="#1e19c7"></path><path d="M784 32.9L793 0L711 28.9Z" fill="#3219d8" stroke="#3219d8"></path><path d="M28 232.1L81 247.3L125 161.4Z" fill="#3818dd" stroke="#3818dd"></path><path d="M81 247.3L59 270.1L94 290.1Z" fill="#2519cd" stroke="#2519cd"></path><path d="M820 477.4L790 521.3L890 550.1Z" fill="#5b13ff" stroke="#5b13ff"></path><path d="M890 486.3L900 493.4L887 451.4Z" fill="#5515f9" stroke="#5515f9"></path><path d="M266 0L195 0L208 10.9Z" fill="#1e19c7" stroke="#1e19c7"></path><path d="M208 10.9L131 48.9L199 86.7Z" fill="#3219d8" stroke="#3219d8"></path><path d="M63 251.3L59 270.1L81 247.3Z" fill="#4417e9" stroke="#4417e9"></path><path d="M900 105.6L859 70.9L838 119.7Z" fill="#5515f9" stroke="#5515f9"></path><path d="M828 55.7L814 0L794 42.7Z" fill="#5515f9" stroke="#5515f9"></path><path d="M890 550.1L790 521.3L786 548.1Z" fill="#5b13ff" stroke="#5b13ff"></path><path d="M138 71.7L109 98.7L118 117.6Z" fill="#2519cd" stroke="#2519cd"></path><path d="M8 174.4L28 232.1L125 161.4Z" fill="#3818dd" stroke="#3818dd"></path><path d="M123 54.9L109 98.7L138 71.7Z" fill="#4a17ee" stroke="#4a17ee"></path><path d="M900 188.3L900 123.7L864 185.4Z" fill="#4417e9" stroke="#4417e9"></path><path d="M836 0L814 0L828 55.7Z" fill="#2519cd" stroke="#2519cd"></path><path d="M836 0L828 55.7L859 70.9Z" fill="#4417e9" stroke="#4417e9"></path><path d="M25 296L45 342.9L94 290.1Z" fill="#2519cd" stroke="#2519cd"></path><path d="M83 525.3L146 525.3L121 444.4Z" fill="#4f16f4" stroke="#4f16f4"></path><path d="M146 525.3L116 567.1L193 600Z" fill="#5b13ff" stroke="#5b13ff"></path><path d="M83 525.3L121 444.4L33 470.4Z" fill="#3818dd" stroke="#3818dd"></path><path d="M107 552.1L116 567.1L146 525.3Z" fill="#3e18e3" stroke="#3e18e3"></path><path d="M156 0L131 48.9L208 10.9Z" fill="#4f16f4" stroke="#4f16f4"></path><path d="M883 600L890 550.1L786 548.1Z" fill="#3e18e3" stroke="#3e18e3"></path><path d="M900 123.7L900 105.6L838 119.7Z" fill="#3219d8" stroke="#3219d8"></path><path d="M100 0L123 54.9L131 48.9Z" fill="#4417e9" stroke="#4417e9"></path><path d="M131 48.9L123 54.9L138 71.7Z" fill="#2519cd" stroke="#2519cd"></path><path d="M33 470.4L121 444.4L73 394.6Z" fill="#4a17ee" stroke="#4a17ee"></path><path d="M126 600L127 600L116 567.1Z" fill="#3e18e3" stroke="#3e18e3"></path><path d="M126 600L116 567.1L53 597.1Z" fill="#2c19d2" stroke="#2c19d2"></path><path d="M116 567.1L127 600L193 600Z" fill="#5b13ff" stroke="#5b13ff"></path><path d="M81 546.3L116 567.1L107 552.1Z" fill="#4f16f4" stroke="#4f16f4"></path><path d="M900 33.9L836 0L859 70.9Z" fill="#1e19c7" stroke="#1e19c7"></path><path d="M195 0L156 0L208 10.9Z" fill="#5b13ff" stroke="#5b13ff"></path><path d="M883 600L900 558.1L890 550.1Z" fill="#3818dd" stroke="#3818dd"></path><path d="M890 550.1L900 558.1L900 501.3Z" fill="#3e18e3" stroke="#3e18e3"></path><path d="M0 280.1L25 296L59 270.1Z" fill="#2519cd" stroke="#2519cd"></path><path d="M59 270.1L25 296L94 290.1Z" fill="#2c19d2" stroke="#2c19d2"></path><path d="M0 494.4L81 546.3L83 525.3Z" fill="#4a17ee" stroke="#4a17ee"></path><path d="M28 232.1L59 270.1L63 251.3Z" fill="#3219d8" stroke="#3219d8"></path><path d="M125 161.4L118 117.6L51 126.6Z" fill="#3e18e3" stroke="#3e18e3"></path><path d="M33 470.4L73 394.6L0 420.6Z" fill="#3818dd" stroke="#3818dd"></path><path d="M83 525.3L81 546.3L107 552.1Z" fill="#2c19d2" stroke="#2c19d2"></path><path d="M51 126.6L118 117.6L109 98.7Z" fill="#5515f9" stroke="#5515f9"></path><path d="M788 600L883 600L786 548.1Z" fill="#5515f9" stroke="#5515f9"></path><path d="M74 70.7L109 98.7L123 54.9Z" fill="#1e19c7" stroke="#1e19c7"></path><path d="M74 70.7L51 126.6L109 98.7Z" fill="#5b13ff" stroke="#5b13ff"></path><path d="M0 382.9L73 394.6L45 342.9Z" fill="#1e19c7" stroke="#1e19c7"></path><path d="M100 0L74 70.7L123 54.9Z" fill="#3818dd" stroke="#3818dd"></path><path d="M883 600L900 600L900 558.1Z" fill="#4a17ee" stroke="#4a17ee"></path><path d="M900 105.6L900 33.9L859 70.9Z" fill="#2519cd" stroke="#2519cd"></path><path d="M0 280.1L0 290L25 296Z" fill="#3818dd" stroke="#3818dd"></path><path d="M25 296L0 290L45 342.9Z" fill="#4a17ee" stroke="#4a17ee"></path><path d="M0 280.1L59 270.1L28 232.1Z" fill="#4417e9" stroke="#4417e9"></path><path d="M0 205.4L0 280.1L28 232.1Z" fill="#5515f9" stroke="#5515f9"></path><path d="M0 290L0 382.9L45 342.9Z" fill="#3e18e3" stroke="#3e18e3"></path><path d="M0 382.9L0 389.7L73 394.6Z" fill="#5b13ff" stroke="#5b13ff"></path><path d="M0 389.7L0 420.6L73 394.6Z" fill="#5b13ff" stroke="#5b13ff"></path><path d="M0 581.1L53 597.1L81 546.3Z" fill="#3219d8" stroke="#3219d8"></path><path d="M8 174.4L125 161.4L51 126.6Z" fill="#3e18e3" stroke="#3e18e3"></path><path d="M8 174.4L0 205.4L28 232.1Z" fill="#3e18e3" stroke="#3e18e3"></path><path d="M0 172.3L8 174.4L2 136.6Z" fill="#3e18e3" stroke="#3e18e3"></path><path d="M156 0L100 0L131 48.9Z" fill="#2c19d2" stroke="#2c19d2"></path><path d="M2 136.6L8 174.4L51 126.6Z" fill="#4a17ee" stroke="#4a17ee"></path><path d="M900 33.9L900 0L836 0Z" fill="#2c19d2" stroke="#2c19d2"></path><path d="M2 136.6L51 126.6L0 127.7Z" fill="#2c19d2" stroke="#2c19d2"></path><path d="M8 174.4L0 172.3L0 205.4Z" fill="#4a17ee" stroke="#4a17ee"></path><path d="M0 494.4L83 525.3L33 470.4Z" fill="#2519cd" stroke="#2519cd"></path><path d="M81 546.3L53 597.1L116 567.1Z" fill="#4a17ee" stroke="#4a17ee"></path><path d="M0 420.6L0 484.3L33 470.4Z" fill="#3818dd" stroke="#3818dd"></path><path d="M0 581.1L52 600L53 597.1Z" fill="#4f16f4" stroke="#4f16f4"></path><path d="M53 597.1L52 600L126 600Z" fill="#2c19d2" stroke="#2c19d2"></path><path d="M0 484.3L0 494.4L33 470.4Z" fill="#3818dd" stroke="#3818dd"></path><path d="M0 127.7L51 126.6L0 92.6Z" fill="#4f16f4" stroke="#4f16f4"></path><path d="M18 60.9L51 126.6L74 70.7Z" fill="#3219d8" stroke="#3219d8"></path><path d="M2 136.6L0 127.7L0 172.3Z" fill="#2519cd" stroke="#2519cd"></path><path d="M100 0L69 0L74 70.7Z" fill="#4a17ee" stroke="#4a17ee"></path><path d="M40 0L18 60.9L74 70.7Z" fill="#5b13ff" stroke="#5b13ff"></path><path d="M18 60.9L0 92.6L51 126.6Z" fill="#1e19c7" stroke="#1e19c7"></path><path d="M69 0L40 0L74 70.7Z" fill="#2c19d2" stroke="#2c19d2"></path><path d="M18 60.9L0 33.9L0 92.6Z" fill="#3818dd" stroke="#3818dd"></path><path d="M0 494.4L0 581.1L81 546.3Z" fill="#3e18e3" stroke="#3e18e3"></path><path d="M0 581.1L0 600L52 600Z" fill="#3818dd" stroke="#3818dd"></path><path d="M40 0L0 33.9L18 60.9Z" fill="#5b13ff" stroke="#5b13ff"></path><path d="M40 0L0 0L0 33.9Z" fill="#3e18e3" stroke="#3e18e3"></path></g></svg>